<svg width="35" height="35" viewBox="0 0 35 35" fill="none" xmlns="http://www.w3.org/2000/svg">
<g clip-path="url(#clip0_6_2)">
<path d="M13.0635 15.3125C13.0635 14.1012 12.0832 13.1223 10.876 13.1223L9.84375 13.125C7.42793 13.125 5.46875 15.0842 5.46875 17.5055V20.7724C5.46875 23.1943 7.43066 25.1562 9.84375 25.1562H10.9375C12.1447 25.1562 13.125 24.1746 13.125 22.9646L13.0635 15.3125ZM17.5 0C7.71777 0 0.313291 8.1416 0.00142188 17.5L0 20.2344C0 21.1436 0.734863 21.875 1.5791 21.875C2.42334 21.875 3.28125 21.1436 3.28125 20.2344V17.5C3.28125 9.65918 9.66191 3.29492 17.5 3.29492C25.3408 3.29492 31.7188 9.65918 31.7188 17.5V27.3438C31.7188 28.8538 30.4944 30.0781 28.9844 30.0781H21.417C20.8496 29.1006 19.8037 28.4375 18.5938 28.4375H16.5293C14.9427 28.4375 13.4873 29.5101 13.1886 31.0687C12.7832 33.168 14.3828 35 16.3447 35H18.5938C19.8051 35 20.8517 34.3362 21.4197 33.3594H28.9844C32.3066 33.3594 35 30.666 35 27.3438V17.5C34.6855 8.1416 27.2822 0 17.5 0ZM25.1562 25.1562C27.5721 25.1562 29.5312 23.1943 29.5312 20.7724V17.5068C29.5312 15.0869 27.5693 13.125 25.1562 13.125H24.0625C22.8553 13.125 21.875 14.1053 21.875 15.3152V22.9619C21.875 24.1787 22.8525 25.1562 24.0625 25.1562H25.1562Z" fill="#3B695B"/>
</g>
<defs>
<clipPath id="clip0_6_2">
<rect width="35" height="35" fill="white"/>
</clipPath>
</defs>
</svg>
