<svg width="35" height="35" viewBox="0 0 35 35" fill="none" xmlns="http://www.w3.org/2000/svg">
<path d="M6.5625 32.8125H10.9375C12.1475 32.8125 13.125 31.835 13.125 30.625C13.125 29.415 12.1475 28.4375 10.9375 28.4375H6.5625C5.35459 28.4375 4.375 27.4579 4.375 26.25V8.75C4.375 7.54209 5.35459 6.5625 6.5625 6.5625H10.9375C12.1475 6.5625 13.125 5.58291 13.125 4.375C13.125 3.16709 12.1475 2.1875 10.9375 2.1875H6.5625C2.93809 2.1875 0 5.12559 0 8.75V26.25C0 29.873 2.93809 32.8125 6.5625 32.8125ZM34.5078 16.3037L24.6572 7.00684C24.1804 6.55717 23.4814 6.43433 22.8799 6.69279C22.2781 6.95235 21.888 7.54523 21.888 8.20012L21.8817 13.122L13.1317 13.1219C11.9224 13.1219 10.9428 14.1015 10.9428 15.3094V19.6844C10.9428 20.8923 11.9231 21.8719 13.1317 21.8719L21.8817 21.872L21.888 26.7323C21.888 27.3871 22.2781 27.9799 22.8799 28.2397C23.4817 28.4981 24.1808 28.3753 24.6572 27.9256L34.5078 18.6287C35.1641 18.0742 35.1641 16.9258 34.5078 16.3037Z" fill="#3B695B"/>
</svg>
