<svg width="7" height="25" viewBox="0 0 7 25" fill="none" xmlns="http://www.w3.org/2000/svg">
<path d="M3.125 17.5781C4.63525 17.5781 5.85938 18.8037 5.85938 20.3125C5.85938 21.8213 4.63525 23.0469 3.125 23.0469C1.61475 23.0469 0.390625 21.8213 0.390625 20.3125C0.390625 18.8037 1.61475 17.5781 3.125 17.5781ZM3.125 9.76562C4.63525 9.76562 5.85938 10.9912 5.85938 12.5C5.85938 14.0088 4.63525 15.2344 3.125 15.2344C1.61475 15.2344 0.390625 14.0088 0.390625 12.5C0.390625 10.9912 1.61475 9.76562 3.125 9.76562ZM3.125 7.42188C1.61475 7.42188 0.390625 6.19629 0.390625 4.6875C0.390625 3.17725 1.61475 1.95312 3.125 1.95312C4.63525 1.95312 5.85938 3.17725 5.85938 4.6875C5.85938 6.19629 4.63525 7.42188 3.125 7.42188Z" fill="#3B695B"/>
</svg>
