<svg width="31" height="35" viewBox="0 0 31 35" fill="none" xmlns="http://www.w3.org/2000/svg">
<g clip-path="url(#clip0_3_17)">
<path d="M0 6.5625C0 5.35459 0.97959 4.375 2.1875 4.375H28.4375C29.6475 4.375 30.625 5.35459 30.625 6.5625C30.625 7.77246 29.6475 8.75 28.4375 8.75H2.1875C0.97959 8.75 0 7.77246 0 6.5625ZM0 17.5C0 16.29 0.97959 15.3125 2.1875 15.3125H28.4375C29.6475 15.3125 30.625 16.29 30.625 17.5C30.625 18.71 29.6475 19.6875 28.4375 19.6875H2.1875C0.97959 19.6875 0 18.71 0 17.5ZM28.4375 30.625H2.1875C0.97959 30.625 0 29.6475 0 28.4375C0 27.2275 0.97959 26.25 2.1875 26.25H28.4375C29.6475 26.25 30.625 27.2275 30.625 28.4375C30.625 29.6475 29.6475 30.625 28.4375 30.625Z" fill="#3B695B"/>
</g>
<defs>
<clipPath id="clip0_3_17">
<rect width="30.625" height="35" fill="white"/>
</clipPath>
</defs>
</svg>
